<svg xmlns="http://www.w3.org/2000/svg" width="33" height="30" viewBox="0 0 33 30">
    <path fill="#777" d="M30.225 7.5c0-4.3-6.5-7.5-15-7.5S0 3.25 0 7.5V8c.04 1.283.588 2.498 1.525 3.375-.927.894-1.474 2.113-1.525 3.4v.45c.051 1.287.598 2.506 1.525 3.4C.585 19.501.036 20.716 0 22v.5C0 26.8 6.5 30 15 30s15.125-3.25 15.125-7.5V22c-.036-1.284-.586-2.5-1.525-3.375.927-.894 1.474-2.113 1.525-3.4v-.45c-.051-1.287-.598-2.506-1.525-3.4.937-.877 1.486-2.092 1.525-3.375l.1-.5zm-2.5 15c0 2.5-5.4 5-12.5 5S2.5 24.85 2.5 22.5V22c.052-.725.417-1.39 1-1.825 3.553 1.822 7.509 2.716 11.5 2.6 4.017.17 8.01-.691 11.6-2.5.592.43.967 1.096 1.025 1.825l.1.4zm0-7.225c-.07.732-.441 1.402-1.025 1.85-.746.645-1.59 1.168-2.5 1.55-2.928 1.145-6.057 1.689-9.2 1.6-3.096.054-6.172-.507-9.05-1.65-.905-.39-1.748-.913-2.5-1.55-.551-.465-.893-1.131-.95-1.85v-.45c.07-.726.43-1.394 1-1.85C5.303 13.939 7.264 14.64 9.3 15c1.878.365 3.787.549 5.7.55 1.988.012 3.973-.172 5.925-.55 2.03-.356 3.983-1.057 5.775-2.075.584.448.955 1.118 1.025 1.85v.5zm0-7.225c-.058.729-.433 1.396-1.025 1.825-.734.662-1.58 1.187-2.5 1.55-2.926 1.154-6.055 1.707-9.2 1.625-3.098.047-6.174-.522-9.05-1.675-.915-.371-1.76-.896-2.5-1.55C2.9 9.369 2.558 8.711 2.5 8v-.5c0-2.5 5.4-5 12.5-5s12.625 2.65 12.625 5l.1.55z"/>
</svg>
