<svg xmlns="http://www.w3.org/2000/svg" width="111" height="27" viewBox="0 0 111 27">
    <g fill="#AAA" fill-rule="evenodd">
        <path d="M13.5 0C21 0 27 6 27 13.5S21 27 13.5 27 0 21 0 13.5 6 0 13.5 0zM21 6H6v15h15V6z" opacity=".501"/>
        <path d="M13.5 9L18 18 9 18z"/>
        <g fill-rule="nonzero">
            <path d="M.8 15V.2H6c1.3 0 2.6.3 3.7 1s2.1 1.6 2.7 2.7c.7 1.1 1 2.4 1 3.7 0 1.3-.3 2.5-.9 3.6-.6 1.1-1.5 2-2.5 2.7-1.1.7-2.3 1-3.5 1H.8v.1zm1.7-1.6h3.7c1 0 1.8-.3 2.7-.8.9-.5 1.5-1.2 2-2.1.5-.9.7-1.8.7-2.8 0-1.1-.3-2-.8-2.9-.5-.9-1.2-1.6-2.1-2.1-.9-.5-1.8-.8-2.8-.8H2.5v11.5zM16.3 15L16.3.2 26.6.2 26.6 1.7 18 1.7 18 7 25.2 7 25.2 8.5 18 8.5 18 13.4 27 13.4 27 15zM29.8 15L29.8.2 30.7.2 40.6 11.6 40.6.2 42.4.2 42.4 15 41.4 15 31.6 3.6 31.6 15zM46 15L46 .2 56.3.2 56.3 1.7 47.8 1.7 47.8 7 55 7 55 8.5 47.8 8.5 47.8 13.4 56.8 13.4 56.8 15zM59.5 15L59.5.2 61.3.2 61.3 15zM65 15V.2h6.1c1 0 1.8.1 2.5.4.7.3 1.3.7 1.7 1.1.4.5.7 1 .9 1.6.2.6.3 1.2.3 1.9 0 1.3-.3 2.3-.8 3.2-.6.8-1.4 1.4-2.4 1.7L77 15h-2.2l-3.4-4.6h-4.6V15H65zm1.8-6h3.5c1.4 0 2.4-.3 3.2-.9.7-.6 1.1-1.5 1.1-2.7 0-.5-.1-.9-.2-1.3s-.3-.8-.6-1.1c-.3-.3-.7-.6-1.2-.8-.5-.2-1.1-.3-1.8-.3h-4V9z" transform="translate(34 6)"/>
        </g>
    </g>
</svg>
